{
  "accessors": [
    {
      "bufferView": 0,
      "componentType": 5126,
      "count": 912,
      "type": "VEC3",
      "max": [
        0.75,
        0.75,
        0.032000001519918442
      ],
      "min": [
        -0.75,
        -0.75,
        -0.032000064849853516
      ]
    },
    {
      "bufferView": 1,
      "componentType": 5126,
      "count": 912,
      "type": "VEC3",
      "max": [
        1.0,
        1.0,
        1.0
      ],
      "min": [
        -1.0,
        -1.0,
        -1.0
      ]
    },
    {
      "bufferView": 2,
      "componentType": 5126,
      "count": 912,
      "type": "VEC2",
      "max": [
        1.0,
        1.0
      ],
      "min": [
        0.0,
        0.0
      ]
    },
    {
      "bufferView": 3,
      "componentType": 5123,
      "count": 3708,
      "type": "SCALAR",
      "max": [
        911.0
      ],
      "min": [
        0.0
      ]
    }
  ],
  "asset": {
    "version": "2.0"
  },
  "buffers": [
    {
      "uri": "pizzadoughflat_2024-09-14_17.39.32.bin",
      "byteLength": 36600
    }
  ],
  "bufferViews": [
    {
      "buffer": 0,
      "byteLength": 10944
    },
    {
      "buffer": 0,
      "byteOffset": 10944,
      "byteLength": 10944
    },
    {
      "buffer": 0,
      "byteOffset": 21888,
      "byteLength": 7296
    },
    {
      "buffer": 0,
      "byteOffset": 29184,
      "byteLength": 7416
    }
  ],
  "materials": [
    {
      "pbrMetallicRoughness": {
        "baseColorFactor": [
          0.8666667,
          0.831372559,
          0.745098054,
          1.0
        ],
        "metallicFactor": 0.0
      },
      "alphaMode": "BLEND",
      "alphaCutoff": 1.0,
      "name": "SpaceObject(Clone) #DDD4BEFF"
    }
  ],
  "meshes": [
    {
      "primitives": [
        {
          "attributes": {
            "POSITION": 0,
            "NORMAL": 1,
            "TEXCOORD_0": 2
          },
          "indices": 3,
          "material": 0
        }
      ],
      "name": "Cylinder"
    }
  ],
  "nodes": [
    {
      "children": [
        1,
        3,
        4
      ],
      "rotation": [
        0.0,
        0.0,
        0.0,
        -1.0
      ],
      "name": "Space Root"
    },
    {
      "children": [
        2
      ],
      "rotation": [
        0.0,
        0.0,
        0.0,
        -1.0
      ],
      "name": "Viewpoints"
    },
    {
      "rotation": [
        -0.245622,
        0.216323808,
        0.0563301779,
        0.9432395
      ],
      "scale": [
        0.9999943,
        0.9999988,
        0.9999648
      ],
      "translation": [
        0.514427662,
        1.4663583,
        1.14351213
      ],
      "name": "Viewpoint 1"
    },
    {
      "rotation": [
        0.0,
        0.0,
        0.0,
        -1.0
      ],
      "name": "Background"
    },
    {
      "children": [
        5
      ],
      "rotation": [
        0.0,
        0.0,
        0.0,
        -1.0
      ],
      "name": "Stage 1"
    },
    {
      "mesh": 0,
      "rotation": [
        -0.478186548,
        0.5434914,
        -0.5149127,
        -0.4591511
      ],
      "scale": [
        0.199800149,
        0.199800357,
        0.199800208
      ],
      "translation": [
        0.14914012,
        0.0117845535,
        0.842977166
      ],
      "name": "Cylinder"
    }
  ],
  "scene": 0,
  "scenes": [
    {
      "nodes": [
        0
      ],
      "name": "pizzadoughflat_2024-09-14_17.39.32"
    }
  ]
}